<svg width="172" height="28" viewBox="0 0 172 28" fill="none" xmlns="http://www.w3.org/2000/svg">
<path d="M149.269 17.7281C149.269 19.3612 150.585 20.6851 152.208 20.6851C153.831 20.6851 155.147 19.3612 155.147 17.7281C155.147 16.095 153.831 14.7711 152.208 14.7711C150.585 14.7711 149.269 16.095 149.269 17.7281Z" fill="#EE992A" fill-opacity="0.6"/>
<path d="M156.673 9.59035C157.726 10.6496 157.726 12.366 156.673 13.4226C155.62 14.4819 153.914 14.4819 152.864 13.4226C151.811 12.3634 151.811 10.647 152.864 9.59035C153.917 8.53108 155.623 8.53108 156.673 9.59035Z" fill="#EE992A" fill-opacity="0.6"/>
<path d="M158.499 8.9306C158.499 10.2923 159.596 11.3961 160.95 11.3961C162.303 11.3961 163.4 10.2923 163.4 8.9306C163.4 7.56895 162.303 6.46511 160.95 6.46511C159.596 6.46511 158.499 7.56895 158.499 8.9306Z" fill="#EE992A" fill-opacity="0.6"/>
<path d="M168.691 13.0756C167.829 13.943 166.434 13.943 165.574 13.0756C164.712 12.2083 164.712 10.8047 165.574 9.9399C166.436 9.07251 167.831 9.07251 168.691 9.9399C169.55 10.8073 169.553 12.2109 168.691 13.0756Z" fill="#EE992A" fill-opacity="0.6"/>
<path d="M167.735 17.728C167.735 18.8168 168.612 19.6994 169.694 19.6994C170.776 19.6994 171.654 18.8168 171.654 17.728C171.654 16.6393 170.776 15.7567 169.694 15.7567C168.612 15.7567 167.735 16.6393 167.735 17.728Z" fill="#EE992A" fill-opacity="0.6"/>
<path d="M165.42 23.9469C165.42 24.8992 166.187 25.6712 167.134 25.6712C168.08 25.6712 168.848 24.8992 168.848 23.9469C168.848 22.9947 168.08 22.2227 167.134 22.2227C166.187 22.2227 165.42 22.9947 165.42 23.9469Z" fill="#EE992A" fill-opacity="0.6"/>
<path d="M159.481 26.5228C159.481 27.3386 160.139 28 160.95 28C161.761 28 162.418 27.3386 162.418 26.5228C162.418 25.707 161.761 25.0456 160.95 25.0456C160.139 25.0456 159.481 25.707 159.481 26.5228Z" fill="#EE992A" fill-opacity="0.6"/>
<path d="M153.903 23.0769C154.381 22.5959 155.157 22.5959 155.636 23.0769C156.114 23.5579 156.114 24.3385 155.636 24.8195C155.157 25.3005 154.381 25.3005 153.903 24.8195C153.425 24.3385 153.425 23.5579 153.903 23.0769Z" fill="#EE992A" fill-opacity="0.6"/>
<path d="M8.00856 11.8582H11.3811C12.3964 11.8582 13.3393 12.0516 14.2096 12.4384C15.1041 12.8252 15.8777 13.3571 16.5305 14.034C17.2074 14.7109 17.7393 15.4966 18.1261 16.3911C18.5129 17.2614 18.7063 18.2043 18.7063 19.2197C18.7063 20.2834 18.5008 21.2746 18.0898 22.1933C17.703 23.0878 17.1591 23.8614 16.458 24.5141C15.781 25.1669 14.9712 25.6867 14.0283 26.0735C13.1096 26.4361 12.1305 26.6174 11.091 26.6174H7.5734C6.70307 26.6174 5.84484 26.4361 4.99869 26.0735C4.15254 25.6867 3.39101 25.1669 2.71409 24.5141C2.03717 23.8372 1.49322 23.0394 1.08223 22.1207C0.671244 21.2021 0.477839 20.1867 0.502015 19.0746C0.502015 19.0263 0.502015 18.9175 0.502015 18.7482C0.52619 18.579 0.538278 18.4702 0.538278 18.4219H4.34595C4.34595 18.4702 4.33386 18.5911 4.30968 18.7845C4.28551 18.9537 4.27342 19.0625 4.27342 19.1109C4.27342 19.5944 4.35803 20.0658 4.52726 20.5251C4.72067 20.9603 4.97451 21.3592 5.2888 21.7218C5.62726 22.0603 6.01407 22.3383 6.44923 22.5559C6.90857 22.7493 7.39208 22.846 7.89977 22.846H11.3448C11.8525 22.846 12.3239 22.7493 12.7591 22.5559C13.2184 22.3383 13.6052 22.0603 13.9195 21.7218C14.2338 21.3834 14.4756 20.9966 14.6448 20.5614C14.8382 20.1262 14.9349 19.679 14.9349 19.2197C14.9349 18.6153 14.814 18.0955 14.5723 17.6603C14.3305 17.201 14.0283 16.8263 13.6657 16.5362C13.303 16.2219 12.9162 15.9922 12.5052 15.8472C12.0942 15.7021 11.7074 15.6296 11.3448 15.6296H7.79098C6.79978 15.6296 5.85693 15.4362 4.96243 15.0494C4.0921 14.6384 3.31848 14.1065 2.64156 13.4538C1.98882 12.7768 1.46904 11.9911 1.08223 11.0966C0.69542 10.2021 0.502015 9.27137 0.502015 8.30434C0.502015 7.28896 0.69542 6.33402 1.08223 5.43953C1.49322 4.52085 2.02508 3.72305 2.67783 3.04613C3.35474 2.36922 4.14045 1.83735 5.03495 1.45054C5.92945 1.06373 6.88439 0.870324 7.89977 0.870324H11.3085C12.3239 0.870324 13.2789 1.06373 14.1734 1.45054C15.092 1.83735 15.8898 2.36922 16.5667 3.04613C17.2437 3.72305 17.7755 4.53294 18.1623 5.47579C18.5733 6.39447 18.7667 7.39776 18.7426 8.48566H14.9712C14.8503 7.39776 14.4876 6.49117 13.8832 5.7659C13.2789 5.01645 12.4327 4.64173 11.3448 4.64173H7.89977C6.88439 4.64173 6.02616 4.99228 5.32506 5.69337C4.64814 6.37029 4.30968 7.21644 4.30968 8.23182C4.30968 8.7395 4.3943 9.19884 4.56353 9.60983C4.73276 10.0208 4.95034 10.3714 5.21627 10.6615C5.50638 10.9516 5.83275 11.1933 6.19538 11.3867C6.55802 11.556 6.93274 11.6889 7.31955 11.7856L8.00856 11.8582Z" fill="#EE992A" fill-opacity="0.6"/>
<path d="M25.886 2.2846C25.886 2.91317 25.6563 3.45712 25.197 3.91646C24.7618 4.35162 24.23 4.5692 23.6014 4.5692C22.9728 4.5692 22.441 4.35162 22.0058 3.91646C21.5706 3.45712 21.3531 2.91317 21.3531 2.2846C21.3531 1.65603 21.5706 1.12417 22.0058 0.689006C22.441 0.229669 22.9728 0 23.6014 0C24.23 0 24.7618 0.229669 25.197 0.689006C25.6563 1.12417 25.886 1.65603 25.886 2.2846ZM25.4871 6.30985V26.6174H21.7157V6.30985H25.4871Z" fill="#EE992A" fill-opacity="0.6"/>
<path d="M29.242 5.33074H32.9771V7.03512L33.376 6.74501C34.0529 6.28567 34.8145 5.93513 35.6606 5.69337C36.5068 5.42744 37.3288 5.29447 38.1265 5.29447C39.3595 5.29447 40.5079 5.53623 41.5716 6.01974C42.6595 6.50325 43.6023 7.156 44.4001 7.97797C45.2221 8.77577 45.8628 9.71862 46.3221 10.8065C46.7814 11.8944 47.0111 13.0549 47.0111 14.2878V26.6174H43.276V14.2878C43.276 13.5626 43.143 12.8856 42.8771 12.2571C42.6111 11.6043 42.2364 11.0483 41.7529 10.5889C41.2936 10.1054 40.7496 9.73071 40.121 9.46478C39.5166 9.19884 38.8518 9.06588 38.1265 9.06588C37.4255 9.06588 36.7606 9.19884 36.1321 9.46478C35.5035 9.73071 34.9474 10.1054 34.4639 10.5889C34.0046 11.0483 33.642 11.6043 33.376 12.2571C33.1101 12.8856 32.9771 13.5626 32.9771 14.2878V26.6174H29.242V5.33074Z" fill="#EE992A" fill-opacity="0.6"/>
<path d="M70.5314 26.6174H66.7963V24.5141L66.3974 24.8405C65.4787 25.5658 64.4633 26.1339 63.3512 26.5449C62.2392 26.9317 61.0908 27.1251 59.9062 27.1251C58.4073 27.1251 57.0051 26.8471 55.6996 26.291C54.4183 25.7108 53.2942 24.9372 52.3271 23.9702C51.3601 22.979 50.5986 21.8427 50.0425 20.5614C49.5107 19.2801 49.2447 17.9142 49.2447 16.4636C49.2447 15.0131 49.5228 13.6351 50.0788 12.3296C50.6348 11.0241 51.3964 9.88785 52.3634 8.92082C53.3304 7.9538 54.4546 7.19226 55.7359 6.63622C57.0414 6.08018 58.4315 5.80216 59.9062 5.80216C61.2359 5.82634 62.4326 6.03183 63.4963 6.41864C64.56 6.80545 65.5391 7.37358 66.4336 8.12302L66.76 8.41313L66.7963 7.47028H70.5314V26.6174ZM66.7963 16.4636C66.7963 15.4724 66.6029 14.5538 66.2161 13.7076C65.8534 12.8615 65.3457 12.1362 64.693 11.5318C64.0644 10.9032 63.3271 10.4197 62.4809 10.0813C61.6589 9.71862 60.7886 9.5373 59.8699 9.5373C58.9271 9.5373 58.0326 9.71862 57.1864 10.0813C56.3645 10.4439 55.6392 10.9395 55.0106 11.5681C54.3821 12.1966 53.8865 12.934 53.5238 13.7801C53.1612 14.6263 52.9799 15.5208 52.9799 16.4636C52.9799 17.4548 53.1612 18.3735 53.5238 19.2197C53.9106 20.0658 54.4183 20.8032 55.0469 21.4317C55.6996 22.0361 56.437 22.5196 57.259 22.8823C58.1051 23.2207 58.9754 23.39 59.8699 23.39C60.8853 23.39 61.8161 23.1966 62.6622 22.8097C63.5084 22.4229 64.2337 21.9152 64.838 21.2867C65.4666 20.6581 65.9501 19.9208 66.2886 19.0746C66.627 18.2285 66.7963 17.3581 66.7963 16.4636Z" fill="#EE992A" fill-opacity="0.6"/>
<path d="M73.8616 0.870324H83.5077C84.4505 0.870324 85.345 1.05164 86.1912 1.41428C87.0373 1.77691 87.7747 2.2846 88.4032 2.93734C89.0318 3.56591 89.5274 4.30327 89.89 5.14942C90.2527 5.97139 90.434 6.8538 90.434 7.79665C90.434 8.4494 90.3252 9.1384 90.1076 9.86367C89.9142 10.5648 89.612 11.1812 89.201 11.7131L89.0922 11.8582L89.3098 12.0032C89.9384 12.3175 90.4944 12.7285 90.9779 13.2362C91.4614 13.7197 91.8724 14.2636 92.2109 14.868C92.5735 15.4483 92.8395 16.0768 93.0087 16.7537C93.2021 17.4307 93.2988 18.1076 93.2988 18.7845C93.2988 19.824 93.0933 20.8153 92.6823 21.7581C92.2955 22.701 91.7395 23.535 91.0142 24.2603C90.3131 24.9856 89.479 25.5658 88.512 26.0009C87.5692 26.4119 86.5538 26.6174 85.4659 26.6174H73.8616V0.870324ZM83.5077 10.9516C83.8945 10.9516 84.2692 10.8791 84.6318 10.734C85.0186 10.5648 85.3571 10.3472 85.6472 10.0813C85.9615 9.79115 86.2032 9.45269 86.3725 9.06588C86.5659 8.67907 86.6626 8.25599 86.6626 7.79665C86.6626 7.38567 86.578 6.99886 86.4087 6.63622C86.2637 6.24941 86.0461 5.91095 85.756 5.62084C85.4901 5.33074 85.1637 5.10107 84.7769 4.93184C84.3901 4.73843 83.9549 4.64173 83.4714 4.64173H77.633V10.9153L83.5077 10.9516ZM77.633 22.8097H85.4659C86.0461 22.8097 86.578 22.701 87.0615 22.4834C87.5692 22.2658 88.0043 21.9757 88.367 21.613C88.7296 21.2504 89.0076 20.8273 89.201 20.3438C89.4186 19.8361 89.5274 19.3164 89.5274 18.7845C89.5274 18.2285 89.4186 17.7087 89.201 17.2252C89.0076 16.7417 88.7296 16.3186 88.367 15.9559C88.0043 15.5933 87.5692 15.3032 87.0615 15.0856C86.578 14.868 86.0461 14.7592 85.4659 14.7592H77.633V22.8097Z" fill="#EE992A" fill-opacity="0.6"/>
<path d="M98.8664 17.3702L98.9389 17.6603C99.1323 18.4823 99.4587 19.2197 99.918 19.8724C100.377 20.501 100.909 21.0449 101.514 21.5043C102.142 21.9394 102.807 22.2779 103.508 22.5196C104.233 22.7614 104.934 22.8823 105.611 22.8823C106.917 22.8823 108.065 22.5801 109.056 21.9757C110.048 21.3471 110.894 20.4889 111.595 19.401L115.04 20.9603C114.46 21.9999 113.795 22.8823 113.045 23.6075C112.296 24.3086 111.498 24.8889 110.652 25.3482C109.83 25.7834 108.972 26.1097 108.077 26.3273C107.207 26.5207 106.337 26.6174 105.466 26.6174C104.064 26.6174 102.722 26.3394 101.441 25.7834C100.16 25.2273 99.0356 24.4658 98.0686 23.4988C97.1257 22.5317 96.3642 21.4196 95.784 20.1625C95.2279 18.8812 94.9499 17.5394 94.9499 16.1373C94.9499 14.6625 95.2159 13.2724 95.7477 11.967C96.3038 10.6615 97.0532 9.51313 97.9961 8.52192C98.9631 7.53072 100.087 6.74501 101.369 6.1648C102.674 5.58458 104.076 5.29447 105.575 5.29447C107.074 5.29447 108.464 5.57249 109.745 6.12853C111.051 6.68457 112.187 7.44611 113.154 8.41313C114.121 9.38016 114.871 10.5164 115.403 11.8219C115.959 13.1032 116.237 14.4812 116.237 15.9559C116.237 16.101 116.225 16.3307 116.2 16.6449C116.2 16.9592 116.2 17.201 116.2 17.3702H98.8664ZM111.958 13.3087C111.74 12.7527 111.438 12.2208 111.051 11.7131C110.664 11.2054 110.205 10.7582 109.673 10.3714C109.141 9.96038 108.537 9.634 107.86 9.39225C107.183 9.15049 106.433 9.02961 105.611 9.02961C104.282 9.02961 103.025 9.41642 101.84 10.19C100.655 10.9395 99.7851 12.0032 99.229 13.3812L99.1565 13.5988H112.066L111.958 13.3087Z" fill="#EE992A" fill-opacity="0.6"/>
<path d="M122.409 5.33074V17.9867C122.409 18.6636 122.542 19.3043 122.808 19.9087C123.074 20.4889 123.424 21.0087 123.859 21.468C124.295 21.9032 124.802 22.2537 125.382 22.5196C125.987 22.7614 126.615 22.8823 127.268 22.8823C127.993 22.8823 128.658 22.7493 129.263 22.4834C129.867 22.1933 130.375 21.8185 130.786 21.3592C131.221 20.8999 131.547 20.3801 131.765 19.7999C132.007 19.2197 132.127 18.6274 132.127 18.023V5.33074H135.863V26.6174H132.127V25.0581L131.692 25.3119C131.064 25.7471 130.363 26.0735 129.589 26.291C128.815 26.5086 128.03 26.6174 127.232 26.6174C126.047 26.6174 124.935 26.3877 123.896 25.9284C122.856 25.4691 121.95 24.8526 121.176 24.079C120.402 23.3053 119.786 22.3988 119.326 21.3592C118.891 20.2955 118.674 19.1713 118.674 17.9867V5.33074H122.409Z" fill="#EE992A" fill-opacity="0.6"/>
<path d="M143.578 5.33074V7.03512L143.977 6.74501C144.823 6.21315 145.73 5.82634 146.697 5.58458C147.664 5.34282 148.679 5.29447 149.743 5.43953C150.081 5.48788 150.335 5.52414 150.504 5.54832C150.698 5.57249 150.952 5.60876 151.266 5.65711L149.815 9.17467C149.67 9.12632 149.477 9.10214 149.235 9.10214C149.018 9.07796 148.848 9.06588 148.727 9.06588C148.002 9.06588 147.325 9.21093 146.697 9.50104C146.092 9.76697 145.548 10.1417 145.065 10.6252C144.605 11.0845 144.243 11.6285 143.977 12.2571C143.711 12.8856 143.578 13.5626 143.578 14.2878V26.6174H139.843V5.33074H143.578Z" fill="#EE992A" fill-opacity="0.6"/>
</svg>
