<svg width="324" height="51" viewBox="0 0 324 51" fill="none" xmlns="http://www.w3.org/2000/svg">
<path d="M281.729 31.729C281.729 34.7928 284.214 37.2766 287.28 37.2766C290.345 37.2766 292.83 34.7928 292.83 31.729C292.83 28.6651 290.345 26.1814 287.28 26.1814C284.214 26.1814 281.729 28.6651 281.729 31.729Z" fill="#F5C27F"/>
<path d="M295.711 16.4619C297.699 18.4492 297.699 21.6693 295.711 23.6516C293.723 25.6389 290.501 25.6389 288.518 23.6516C286.53 21.6644 286.53 18.4442 288.518 16.4619C290.506 14.4746 293.728 14.4746 295.711 16.4619Z" fill="#F5C27F"/>
<path d="M299.16 15.2242C299.16 17.7787 301.231 19.8497 303.787 19.8497C306.343 19.8497 308.415 17.7787 308.415 15.2242C308.415 12.6696 306.343 10.5987 303.787 10.5987C301.231 10.5987 299.16 12.6696 299.16 15.2242Z" fill="#F5C27F"/>
<path d="M318.405 23.0006C316.777 24.6279 314.143 24.6279 312.52 23.0006C310.892 21.3733 310.892 18.7401 312.52 17.1177C314.148 15.4904 316.782 15.4904 318.405 17.1177C320.028 18.745 320.033 21.3783 318.405 23.0006Z" fill="#F5C27F"/>
<path d="M316.6 31.7289C316.6 33.7714 318.256 35.4273 320.3 35.4273C322.343 35.4273 324 33.7714 324 31.7289C324 29.6863 322.343 28.0305 320.3 28.0305C318.256 28.0305 316.6 29.6863 316.6 31.7289Z" fill="#F5C27F"/>
<path d="M312.229 43.3961C312.229 45.1827 313.678 46.631 315.465 46.631C317.252 46.631 318.701 45.1827 318.701 43.3961C318.701 41.6095 317.252 40.1612 315.465 40.1612C313.678 40.1612 312.229 41.6095 312.229 43.3961Z" fill="#F5C27F"/>
<path d="M301.015 48.2287C301.015 49.7593 302.256 51 303.787 51C305.319 51 306.56 49.7593 306.56 48.2287C306.56 46.6981 305.319 45.4573 303.787 45.4573C302.256 45.4573 301.015 46.6981 301.015 48.2287Z" fill="#F5C27F"/>
<path d="M290.481 41.7638C291.384 40.8614 292.85 40.8614 293.752 41.7638C294.655 42.6662 294.655 44.1308 293.752 45.0332C292.85 45.9356 291.384 45.9356 290.481 45.0332C289.579 44.1308 289.579 42.6662 290.481 41.7638Z" fill="#F5C27F"/>
<path d="M14.1788 22.2469H20.5473C22.4646 22.2469 24.2451 22.6098 25.8885 23.3355C27.5777 24.0612 29.0385 25.059 30.2712 26.329C31.5494 27.5989 32.5538 29.073 33.2842 30.7511C34.0146 32.3839 34.3798 34.1528 34.3798 36.0577C34.3798 38.0534 33.9918 39.913 33.2157 41.6365C32.4853 43.3146 31.4581 44.766 30.1342 45.9906C28.8559 47.2152 27.3266 48.1904 25.5462 48.9161C23.8114 49.5964 21.9625 49.9366 19.9994 49.9366H13.357C11.7136 49.9366 10.0929 49.5964 8.4951 48.9161C6.89727 48.1904 5.45923 47.2152 4.18097 45.9906C2.90271 44.7207 1.87554 43.2239 1.09945 41.5004C0.323369 39.7769 -0.0418477 37.872 0.00380433 35.7856C0.00380433 35.6949 0.00380433 35.4908 0.00380433 35.1733C0.0494565 34.8558 0.0722826 34.6517 0.0722826 34.561H7.26249C7.26249 34.6517 7.23966 34.8785 7.19401 35.2413C7.14836 35.5588 7.12553 35.7629 7.12553 35.8536C7.12553 36.7607 7.28532 37.6452 7.60488 38.5069C7.9701 39.3233 8.44944 40.0717 9.04292 40.752C9.68205 41.387 10.4125 41.9086 11.2342 42.3168C12.1016 42.6797 13.0147 42.8611 13.9733 42.8611H20.4788C21.4375 42.8611 22.3277 42.6797 23.1494 42.3168C24.0168 41.9086 24.7472 41.387 25.3407 40.752C25.9342 40.1171 26.3907 39.3914 26.7103 38.575C27.0755 37.7586 27.2581 36.9195 27.2581 36.0577C27.2581 34.9238 27.0299 33.9487 26.5733 33.1323C26.1168 32.2705 25.5462 31.5675 24.8614 31.0233C24.1766 30.4336 23.4462 30.0028 22.6701 29.7306C21.894 29.4585 21.1636 29.3224 20.4788 29.3224H13.7679C11.8962 29.3224 10.1157 28.9596 8.42662 28.2339C6.78314 27.4628 5.32227 26.465 4.04402 25.2404C2.81141 23.9705 1.82989 22.4964 1.09945 20.8182C0.369021 19.1401 0.00380433 17.3939 0.00380433 15.5797C0.00380433 13.6747 0.369021 11.8832 1.09945 10.205C1.87554 8.4815 2.87989 6.98477 4.11249 5.71481C5.39075 4.44485 6.87445 3.44703 8.56357 2.72134C10.2527 1.99565 12.056 1.6328 13.9733 1.6328H20.4103C22.3277 1.6328 24.1309 1.99565 25.8201 2.72134C27.5548 3.44703 29.0614 4.44485 30.3396 5.71481C31.6179 6.98477 32.6222 8.50418 33.3527 10.2731C34.1287 11.9966 34.494 13.8788 34.4483 15.9198H27.3266C27.0983 13.8788 26.4135 12.178 25.2722 10.8173C24.1309 9.4113 22.5331 8.70828 20.4788 8.70828H13.9733C12.056 8.70828 10.4353 9.36594 9.1114 10.6813C7.83314 11.9512 7.19401 13.5387 7.19401 15.4436C7.19401 16.3961 7.35379 17.2578 7.67336 18.0289C7.99292 18.7999 8.40379 19.4576 8.90596 20.0018C9.45379 20.5461 10.0701 20.9997 10.7549 21.3625C11.4397 21.68 12.1473 21.9295 12.8777 22.1109L14.1788 22.2469Z" fill="#F5C27F"/>
<path d="M47.9376 4.28611C47.9376 5.46535 47.5039 6.48586 46.6365 7.34761C45.8148 8.16401 44.8105 8.57222 43.6235 8.57222C42.4366 8.57222 41.4322 8.16401 40.6105 7.34761C39.7887 6.48586 39.3779 5.46535 39.3779 4.28611C39.3779 3.10686 39.7887 2.10904 40.6105 1.29264C41.4322 0.430878 42.4366 0 43.6235 0C44.8105 0 45.8148 0.430878 46.6365 1.29264C47.5039 2.10904 47.9376 3.10686 47.9376 4.28611ZM47.1844 11.8378V49.9366H40.0626V11.8378H47.1844Z" fill="#F5C27F"/>
<path d="M54.2749 10.0009H61.3282V13.1985L62.0814 12.6542C63.3597 11.7925 64.7977 11.1348 66.3955 10.6813C67.9934 10.1823 69.5455 9.93289 71.0521 9.93289C73.3803 9.93289 75.5488 10.3864 77.5575 11.2936C79.6118 12.2007 81.3923 13.4253 82.8988 14.9674C84.4509 16.4641 85.6607 18.233 86.5281 20.274C87.3955 22.315 87.8292 24.492 87.8292 26.8052V49.9366H80.7759V26.8052C80.7759 25.4445 80.5249 24.1746 80.0227 22.9953C79.5205 21.7707 78.8129 20.7275 77.8999 19.8658C77.0325 18.9587 76.0053 18.2556 74.8183 17.7567C73.677 17.2578 72.4216 17.0084 71.0521 17.0084C69.7281 17.0084 68.4727 17.2578 67.2858 17.7567C66.0988 18.2556 65.0488 18.9587 64.1358 19.8658C63.2684 20.7275 62.5836 21.7707 62.0814 22.9953C61.5792 24.1746 61.3282 25.4445 61.3282 26.8052V49.9366H54.2749V10.0009Z" fill="#F5C27F"/>
<path d="M132.244 49.9366H125.19V45.9906L124.437 46.6029C122.702 47.9636 120.785 49.0294 118.685 49.8005C116.585 50.5262 114.417 50.889 112.18 50.889C109.349 50.889 106.701 50.3674 104.236 49.3243C101.817 48.2357 99.6938 46.7843 97.8677 44.9701C96.0416 43.1105 94.6036 40.9788 93.5536 38.575C92.5492 36.1711 92.0471 33.6085 92.0471 30.8872C92.0471 28.1659 92.5721 25.5806 93.6221 23.1314C94.6721 20.6822 96.1101 18.5505 97.9362 16.7362C99.7623 14.922 101.885 13.4933 104.305 12.4501C106.77 11.4069 109.395 10.8854 112.18 10.8854C114.691 10.9307 116.95 11.3162 118.959 12.0419C120.968 12.7676 122.817 13.8335 124.506 15.2395L125.122 15.7838L125.19 14.0149H132.244V49.9366ZM125.19 30.8872C125.19 29.0276 124.825 27.3041 124.095 25.7167C123.41 24.1292 122.451 22.7685 121.219 21.6346C120.032 20.4554 118.639 19.5483 117.042 18.9133C115.489 18.233 113.846 17.8928 112.111 17.8928C110.331 17.8928 108.642 18.233 107.044 18.9133C105.492 19.5936 104.122 20.5234 102.935 21.7027C101.748 22.8819 100.812 24.2653 100.127 25.8527C99.4427 27.4402 99.1003 29.1183 99.1003 30.8872C99.1003 32.7468 99.4427 34.4703 100.127 36.0577C100.858 37.6452 101.817 39.0285 103.004 40.2078C104.236 41.3417 105.629 42.2488 107.181 42.9291C108.779 43.5641 110.422 43.8816 112.111 43.8816C114.029 43.8816 115.786 43.5187 117.384 42.793C118.982 42.0674 120.351 41.1149 121.493 39.9356C122.68 38.7564 123.593 37.3731 124.232 35.7856C124.871 34.1982 125.19 32.5653 125.19 30.8872Z" fill="#F5C27F"/>
<path d="M138.532 1.6328H156.747C158.528 1.6328 160.217 1.97297 161.815 2.6533C163.413 3.33364 164.805 4.28611 165.992 5.51071C167.179 6.68996 168.115 8.0733 168.8 9.66075C169.484 11.2028 169.827 12.8583 169.827 14.6272C169.827 15.8518 169.621 17.1444 169.21 18.5051C168.845 19.8204 168.275 20.977 167.498 21.9748L167.293 22.2469L167.704 22.5191C168.891 23.1087 169.941 23.8797 170.854 24.8322C171.767 25.7393 172.543 26.7598 173.182 27.8937C173.867 28.9823 174.369 30.1615 174.689 31.4315C175.054 32.7014 175.237 33.9714 175.237 35.2413C175.237 37.1916 174.848 39.0512 174.072 40.8201C173.342 42.5889 172.292 44.1537 170.922 45.5144C169.598 46.8751 168.023 47.9636 166.197 48.78C164.417 49.551 162.5 49.9366 160.445 49.9366H138.532V1.6328ZM156.747 20.5461C157.478 20.5461 158.185 20.41 158.87 20.1379C159.601 19.8204 160.24 19.4122 160.788 18.9133C161.381 18.369 161.838 17.7341 162.157 17.0084C162.522 16.2827 162.705 15.489 162.705 14.6272C162.705 13.8561 162.545 13.1305 162.226 12.4501C161.952 11.7244 161.541 11.0895 160.993 10.5452C160.491 10.0009 159.875 9.57004 159.144 9.25255C158.414 8.88971 157.592 8.70828 156.679 8.70828H145.654V20.4781L156.747 20.5461ZM145.654 42.793H160.445C161.541 42.793 162.545 42.5889 163.458 42.1807C164.417 41.7725 165.239 41.2283 165.923 40.5479C166.608 39.8676 167.133 39.0739 167.498 38.1668C167.909 37.2143 168.115 36.2392 168.115 35.2413C168.115 34.1982 167.909 33.223 167.498 32.3159C167.133 31.4088 166.608 30.6151 165.923 29.9347C165.239 29.2544 164.417 28.7101 163.458 28.3019C162.545 27.8937 161.541 27.6896 160.445 27.6896H145.654V42.793Z" fill="#F5C27F"/>
<path d="M185.75 32.588L185.887 33.1323C186.252 34.6744 186.869 36.0577 187.736 37.2823C188.603 38.4616 189.608 39.4821 190.749 40.3438C191.936 41.1602 193.191 41.7952 194.515 42.2488C195.885 42.7023 197.209 42.9291 198.487 42.9291C200.952 42.9291 203.121 42.3622 204.992 41.2283C206.864 40.049 208.462 38.4389 209.786 36.3979L216.291 39.3233C215.196 41.2736 213.94 42.9291 212.525 44.2898C211.11 45.6051 209.603 46.6936 208.005 47.5554C206.453 48.3718 204.833 48.9841 203.144 49.3923C201.5 49.7551 199.857 49.9366 198.213 49.9366C195.565 49.9366 193.032 49.415 190.612 48.3718C188.192 47.3286 186.07 45.8999 184.244 44.0857C182.463 42.2715 181.025 40.1851 179.929 37.8266C178.879 35.4228 178.354 32.9055 178.354 30.2749C178.354 27.5082 178.857 24.9002 179.861 22.451C180.911 20.0018 182.326 17.8474 184.107 15.9879C185.933 14.1283 188.055 12.6542 190.475 11.5657C192.94 10.4772 195.588 9.93289 198.419 9.93289C201.249 9.93289 203.874 10.4545 206.293 11.4977C208.759 12.5408 210.904 13.9695 212.73 15.7838C214.557 17.598 215.972 19.7297 216.976 22.1789C218.026 24.5828 218.551 27.168 218.551 29.9347C218.551 30.2069 218.528 30.6377 218.483 31.2274C218.483 31.817 218.483 32.2705 218.483 32.588H185.75ZM210.471 24.9683C210.06 23.9251 209.489 22.9273 208.759 21.9748C208.028 21.0223 207.161 20.1833 206.157 19.4576C205.152 18.6865 204.011 18.0742 202.733 17.6207C201.454 17.1671 200.039 16.9403 198.487 16.9403C195.976 16.9403 193.602 17.666 191.365 19.1174C189.128 20.5234 187.485 22.5191 186.435 25.1043L186.298 25.5125H210.676L210.471 24.9683Z" fill="#F5C27F"/>
<path d="M230.206 10.0009V33.7446C230.206 35.0146 230.458 36.2165 230.96 37.3504C231.462 38.4389 232.124 39.4141 232.946 40.2758C233.767 41.0922 234.726 41.7499 235.822 42.2488C236.963 42.7023 238.15 42.9291 239.383 42.9291C240.752 42.9291 242.008 42.6797 243.149 42.1807C244.29 41.6365 245.249 40.9335 246.025 40.0717C246.847 39.21 247.463 38.2348 247.874 37.1463C248.33 36.0577 248.559 34.9465 248.559 33.8126V10.0009H255.612V49.9366H248.559V47.0111L247.737 47.4874C246.55 48.3038 245.226 48.9161 243.765 49.3243C242.304 49.7325 240.821 49.9366 239.314 49.9366C237.077 49.9366 234.977 49.5057 233.014 48.6439C231.051 47.7822 229.339 46.6256 227.878 45.1742C226.417 43.7228 225.253 42.022 224.386 40.0717C223.564 38.0761 223.153 35.967 223.153 33.7446V10.0009H230.206Z" fill="#F5C27F"/>
<path d="M270.181 10.0009V13.1985L270.934 12.6542C272.532 11.6564 274.244 10.9307 276.07 10.4772C277.896 10.0236 279.814 9.93288 281.822 10.205C282.462 10.2957 282.941 10.3638 283.26 10.4091C283.626 10.4545 284.105 10.5225 284.699 10.6132L281.959 17.2125C281.685 17.1218 281.32 17.0764 280.864 17.0764C280.453 17.031 280.133 17.0084 279.905 17.0084C278.535 17.0084 277.257 17.2805 276.07 17.8248C274.929 18.3237 273.902 19.0267 272.989 19.9338C272.121 20.7956 271.437 21.8161 270.934 22.9953C270.432 24.1746 270.181 25.4445 270.181 26.8052V49.9366H263.128V10.0009H270.181Z" fill="#F5C27F"/>
</svg>
